<?xml version="1.0" encoding="UTF-8" standalone="no"?>
<svg
   xmlns:dc="http://purl.org/dc/elements/1.1/"
   xmlns:cc="http://creativecommons.org/ns#"
   xmlns:rdf="http://www.w3.org/1999/02/22-rdf-syntax-ns#"
   xmlns:svg="http://www.w3.org/2000/svg"
   xmlns="http://www.w3.org/2000/svg"
   viewBox="0 0 173.81332 122.69333"
   height="122.69333"
   width="173.81332"
   xml:space="preserve"
   id="svg2"
   version="1.1"><metadata
     id="metadata8"><rdf:RDF><cc:Work
         rdf:about=""><dc:format>image/svg+xml</dc:format><dc:type
           rdf:resource="http://purl.org/dc/dcmitype/StillImage" /></cc:Work></rdf:RDF></metadata><defs
     id="defs6"><clipPath
       id="clipPath28"
       clipPathUnits="userSpaceOnUse"><path
         id="path26"
         d="m 691.219,11.5781 c -19.418,0 -39.031,0.5117 -58.856,1.5547 -57.078,3 -112.152,10.2266 -164.39,21.0977 C 31.7422,285.219 203.199,582 307.98,707.695 135.457,650.023 18.5703,543.727 11.8867,416.617 c -0.2031,-3.84 -0.3008,-7.672 -0.3008,-11.492 0,3.82 0.0977,7.652 0.3008,11.492 10.1367,192.778 273.7653,337.692 600.5353,337.692 19.418,0 39.027,-0.508 58.851,-1.551 C 1024.7,734.16 1302.51,553.512 1291.76,349.273 1281.62,156.496 1017.98,11.5781 691.219,11.5781" /></clipPath><radialGradient
       id="radialGradient36"
       spreadMethod="pad"
       gradientTransform="matrix(757.668,-39.8333,-26.4439,-502.988,968.785,417.845)"
       gradientUnits="userSpaceOnUse"
       r="1"
       cy="0"
       cx="0"
       fy="0"
       fx="0"><stop
         id="stop30"
         offset="0"
         style="stop-opacity:1;stop-color:#f6f6f6" /><stop
         id="stop32"
         offset="0.00613497"
         style="stop-opacity:1;stop-color:#f6f6f6" /><stop
         id="stop34"
         offset="1"
         style="stop-opacity:1;stop-color:#b1b1b0" /></radialGradient><clipPath
       id="clipPath46"
       clipPathUnits="userSpaceOnUse"><path
         id="path44"
         d="M 1291.76,349.273 C 1281.01,145.039 985.789,-5.46875 632.363,13.1328 278.938,31.7266 1.14063,212.379 11.8867,416.617 22.625,620.852 317.848,771.355 671.273,752.758 1024.7,734.16 1302.51,553.512 1291.76,349.273" /></clipPath><clipPath
       id="clipPath52"
       clipPathUnits="userSpaceOnUse"><path
         id="path50"
         d="M 467.973,34.2305 C 202.844,89.418 11.6055,238.477 11.5859,405.125 c 0,3.82 0.0977,7.652 0.3008,11.492 C 18.5703,543.727 135.457,650.023 307.98,707.695 203.199,582 31.7422,285.219 467.973,34.2305" /></clipPath><radialGradient
       id="radialGradient60"
       spreadMethod="pad"
       gradientTransform="matrix(757.668,-39.8333,-26.4439,-502.988,968.785,417.845)"
       gradientUnits="userSpaceOnUse"
       r="1"
       cy="0"
       cx="0"
       fy="0"
       fx="0"><stop
         id="stop54"
         offset="0"
         style="stop-opacity:1;stop-color:#fcfcfc" /><stop
         id="stop56"
         offset="0.00613497"
         style="stop-opacity:1;stop-color:#fcfcfc" /><stop
         id="stop58"
         offset="1"
         style="stop-opacity:1;stop-color:#e0dedd" /></radialGradient><clipPath
       id="clipPath74"
       clipPathUnits="userSpaceOnUse"><path
         id="path72"
         d="M 1158.67,424.664 C 1151.54,289.316 920.441,191.449 642.492,206.074 364.531,220.699 144.977,342.277 152.098,477.617 159.215,612.957 390.32,710.816 668.277,696.191 946.227,681.566 1165.79,559.996 1158.67,424.664 Z" /></clipPath><linearGradient
       id="linearGradient84"
       spreadMethod="pad"
       gradientTransform="matrix(1006.57,-52.9192,-52.9192,-1006.57,152.095,477.594)"
       gradientUnits="userSpaceOnUse"
       y2="0"
       x2="1"
       y1="0"
       x1="0"><stop
         id="stop76"
         offset="0"
         style="stop-opacity:1;stop-color:#52aee5" /><stop
         id="stop78"
         offset="0.00613497"
         style="stop-opacity:1;stop-color:#52aee5" /><stop
         id="stop80"
         offset="0.05827811"
         style="stop-opacity:1;stop-color:#52aee5" /><stop
         id="stop82"
         offset="1"
         style="stop-opacity:1;stop-color:#2f73aa" /></linearGradient></defs><g
     transform="matrix(1.3333333,0,0,-1.3333333,0,122.69333)"
     id="g10"><g
       transform="scale(0.1)"
       id="g12"><path
         id="path14"
         style="fill:#464648;fill-opacity:1;fill-rule:nonzero;stroke:none"
         d="m 1007.03,644.664 -16.632,11.113 101.512,151.938 16.63,-11.113 -101.51,-151.938" /><path
         id="path16"
         style="fill:#52aee5;fill-opacity:1;fill-rule:nonzero;stroke:none"
         d="m 1077.76,831.004 c -1.11,-21.047 15.05,-39.012 36.1,-40.117 21.07,-1.117 39.03,15.051 40.13,36.101 1.11,21.067 -15.06,39.024 -36.11,40.133 -21.05,1.109 -39.02,-15.055 -40.12,-36.117" /><path
         id="path18"
         style="fill:#464648;fill-opacity:1;fill-rule:nonzero;stroke:none"
         d="m 1115.84,857.176 c -14.97,0 -27.31,-11.731 -28.1,-26.703 -0.81,-15.5 11.14,-28.789 26.65,-29.602 l 1.52,-0.039 c 14.97,0 27.31,11.719 28.1,26.68 0.81,15.515 -11.14,28.808 -26.66,29.625 z m 0.07,-76.344 v 0 l -2.57,0.066 c -26.52,1.399 -46.96,24.11 -45.57,50.625 1.39,26.45 23.94,46.965 50.64,45.582 26.52,-1.394 46.96,-24.117 45.57,-50.644 -1.35,-25.586 -22.46,-45.629 -48.07,-45.629" /><path
         id="path20"
         style="fill:#464648;fill-opacity:1;fill-rule:nonzero;stroke:none"
         d="m 387.813,677.242 -85.004,161.754 17.707,9.305 85.004,-161.75 -17.707,-9.309" /><g
         id="g22"><g
           clip-path="url(#clipPath28)"
           id="g24"><path
             id="path38"
             style="fill:url(#radialGradient36);fill-opacity:1;fill-rule:nonzero;stroke:none"
             d="m 691.219,11.5781 c -19.418,0 -39.031,0.5117 -58.856,1.5547 -57.078,3 -112.152,10.2266 -164.39,21.0977 C 31.7422,285.219 203.199,582 307.98,707.695 135.457,650.023 18.5703,543.727 11.8867,416.617 c -0.2031,-3.84 -0.3008,-7.672 -0.3008,-11.492 0,3.82 0.0977,7.652 0.3008,11.492 10.1367,192.778 273.7653,337.692 600.5353,337.692 19.418,0 39.027,-0.508 58.851,-1.551 C 1024.7,734.16 1302.51,553.512 1291.76,349.273 1281.62,156.496 1017.98,11.5781 691.219,11.5781" /></g></g><g
         id="g40"><g
           clip-path="url(#clipPath46)"
           id="g42"><g
             clip-path="url(#clipPath52)"
             id="g48"><path
               id="path62"
               style="fill:url(#radialGradient60);fill-opacity:1;fill-rule:nonzero;stroke:none"
               d="m 464,34 v 1 h -4 v 1 h -5 v 1 h -4 v 1 h -5 v 1 h -4 v 1 h -4 v 1 h -4 v 1 h -4 v 1 h -4 v 1 h -4 v 1 h -4 v 1 h -4 v 1 h -3 v 1 h -4 v 1 h -3 v 1 h -4 v 1 h -3 v 1 h -4 v 1 h -3 v 1 h -4 v 1 h -3 v 1 h -4 v 1 h -3 v 1 h -3 v 1 h -3 v 1 h -4 v 1 h -2 v 1 h -3 v 1 h -3 v 1 h -3 v 1 h -3 v 1 h -3 v 1 h -3 v 1 h -3 v 1 h -3 v 1 h -2 v 1 h -3 v 1 h -3 v 1 h -3 v 1 h -3 v 1 h -2 v 1 h -3 v 1 h -2 v 1 h -3 v 1 h -2 v 1 h -3 v 1 h -2 v 1 h -3 v 1 h -2 v 1 h -2 v 1 h -3 v 1 h -2 v 1 h -3 v 1 h -2 v 1 h -3 v 1 h -2 v 1 h -2 v 1 h -3 v 1 h -2 v 1 h -2 v 1 h -2 v 1 h -2 v 1 h -2 v 1 h -2 v 1 h -2 v 1 h -3 v 1 h -2 v 1 h -2 v 1 h -2 v 1 h -2 v 1 h -2 v 1 h -2 v 1 h -2 v 1 h -2 v 1 h -2 v 1 h -2 v 1 h -2 v 1 h -2 v 1 h -2 v 1 h -2 v 1 h -2 v 1 h -1 v 1 h -2 v 1 h -2 v 1 h -2 v 1 h -2 v 1 h -2 v 1 h -1 v 1 h -2 v 1 h -2 v 1 h -2 v 1 h -2 v 1 h -1 v 1 h -2 v 1 h -2 v 1 h -2 v 1 h -2 v 1 h -1 v 1 h -2 v 1 h -1 v 1 h -2 v 1 h -1 v 1 h -2 v 1 h -2 v 1 h -1 v 1 h -2 v 1 h -1 v 1 h -2 v 1 h -1 v 1 h -2 v 1 h -1 v 1 h -2 v 1 h -2 v 1 h -1 v 1 h -2 v 1 h -1 v 1 h -2 v 1 h -1 v 1 h -2 v 1 h -1 v 1 h -2 v 1 h -1 v 1 h -1 v 1 h -2 v 1 h -1 v 1 h -1 v 1 h -2 v 1 h -1 v 1 h -1 v 1 h -2 v 1 h -1 v 1 h -1 v 1 h -2 v 1 h -1 v 1 h -2 v 1 h -1 v 1 h -1 v 1 h -2 v 1 h -1 v 1 h -1 v 1 h -2 v 1 h -1 v 1 h -1 v 1 h -1 v 1 h -2 v 1 h -1 v 1 h -1 v 1 h -1 v 1 h -1 v 1 h -1 v 1 h -1 v 1 h -2 v 1 h -1 v 1 h -1 v 1 h -1 v 1 h -1 v 1 h -1 v 1 h -2 v 1 h -1 v 1 h -1 v 1 h -1 v 1 h -1 v 1 h -1 v 1 h -1 v 1 h -2 v 1 h -1 v 1 h -1 v 1 h -1 v 1 h -1 v 1 h -1 v 1 h -1 v 1 h -1 v 1 h -1 v 1 h -1 v 1 h -1 v 1 h -1 v 1 h -1 v 1 h -1 v 1 h -1 v 1 h -1 v 1 h -1 v 1 h -1 v 1 h -1 v 1 h -1 v 1 h -1 v 1 h -1 v 1 h -1 v 2 h -1 v 1 h -1 v 1 h -1 v 1 h -1 v 1 h -1 v 1 h -1 v 1 h -1 v 1 h -1 v 1 h -1 v 1 h -1 v 2 h -1 v 1 h -1 v 1 h -1 v 1 h -1 v 2 h -1 v 1 h -1 v 1 h -1 v 1 h -1 v 2 h -1 v 1 h -1 v 1 h -1 v 1 h -1 v 2 h -1 v 1 h -1 v 1 h -1 v 1 h -1 v 1 h -1 v 2 h -1 v 1 h -1 v 2 h -1 v 1 h -1 v 2 h -1 v 1 h -1 v 2 h -1 v 1 h -1 v 2 h -1 v 1 h -1 v 2 h -1 v 1 h -1 v 2 h -1 v 1 h -1 v 2 h -1 v 1 h -1 v 2 h -1 v 1 h -1 v 2 h -1 v 2 h -1 v 1 h -1 v 2 h -1 v 2 h -1 v 2 h -1 v 2 h -1 v 2 h -1 v 2 h -1 v 2 h -1 v 2 h -1 v 2 h -1 v 2 h -1 v 2 h -1 v 2 h -1 v 2 h -1 v 3 h -1 v 2 h -1 v 3 h -1 v 3 h -1 v 2 h -1 v 3 h -1 v 3 h -1 v 3 h -1 v 3 h -1 v 2 h -1 v 3 h -1 v 4 h -1 v 4 h -1 v 5 h -1 v 5 h -1 v 4 h -1 v 5 h -1 v 5 h -1 v 9 h -1 v 11 h -1 v 26 h 1 v 10 h 1 v 8 h 1 v 6 h 1 v 5 h 1 v 5 h 1 v 4 h 1 v 4 h 1 v 4 h 1 v 3 h 1 v 3 h 1 v 3 h 1 v 3 h 1 v 3 h 1 v 3 h 1 v 3 h 1 v 3 h 1 v 2 h 1 v 2 h 1 v 2 h 1 v 3 h 1 v 2 h 1 v 2 h 1 v 2 h 1 v 3 h 1 v 2 h 1 v 1 h 1 v 2 h 1 v 2 h 1 v 2 h 1 v 1 h 1 v 2 h 1 v 2 h 1 v 2 h 1 v 1 h 1 v 2 h 1 v 2 h 1 v 1 h 1 v 2 h 1 v 1 h 1 v 2 h 1 v 1 h 1 v 2 h 1 v 1 h 1 v 2 h 1 v 1 h 1 v 2 h 1 v 1 h 1 v 2 h 1 v 1 h 1 v 1 h 1 v 2 h 1 v 1 h 1 v 1 h 1 v 1 h 1 v 2 h 1 v 1 h 1 v 1 h 1 v 1 h 1 v 2 h 1 v 1 h 1 v 1 h 1 v 1 h 1 v 1 h 1 v 2 h 1 v 1 h 1 v 1 h 1 v 1 h 1 v 1 h 1 v 1 h 1 v 1 h 1 v 1 h 1 v 1 h 1 v 1 h 1 v 2 h 1 v 1 h 1 v 1 h 1 v 1 h 1 v 1 h 1 v 1 h 1 v 1 h 1 v 1 h 1 v 1 h 1 v 1 h 1 v 1 h 1 v 1 h 1 v 1 h 1 v 1 h 1 v 1 h 1 v 1 h 1 v 1 h 2 v 1 h 1 v 1 h 1 v 1 h 1 v 1 h 1 v 1 h 1 v 1 h 1 v 1 h 1 v 1 h 2 v 1 h 1 v 1 h 1 v 1 h 1 v 1 h 1 v 1 h 1 v 1 h 1 v 1 h 2 v 1 h 1 v 1 h 1 v 1 h 1 v 1 h 2 v 1 h 1 v 1 h 1 v 1 h 2 v 1 h 1 v 1 h 1 v 1 h 1 v 1 h 2 v 1 h 1 v 1 h 1 v 1 h 2 v 1 h 1 v 1 h 1 v 1 h 2 v 1 h 1 v 1 h 1 v 1 h 2 v 1 h 1 v 1 h 2 v 1 h 1 v 1 h 2 v 1 h 1 v 1 h 2 v 1 h 1 v 1 h 2 v 1 h 1 v 1 h 2 v 1 h 1 v 1 h 2 v 1 h 1 v 1 h 2 v 1 h 1 v 1 h 2 v 1 h 2 v 1 h 1 v 1 h 2 v 1 h 2 v 1 h 1 v 1 h 2 v 1 h 2 v 1 h 1 v 1 h 2 v 1 h 1 v 1 h 2 v 1 h 2 v 1 h 2 v 1 h 2 v 1 h 1 v 1 h 2 v 1 h 2 v 1 h 2 v 1 h 2 v 1 h 2 v 1 h 2 v 1 h 2 v 1 h 1 v 1 h 2 v 1 h 2 v 1 h 2 v 1 h 2 v 1 h 2 v 1 h 2 v 1 h 3 v 1 h 2 v 1 h 2 v 1 h 2 v 1 h 2 v 1 h 2 v 1 h 2 v 1 h 2 v 1 h 3 v 1 h 2 v 1 h 2 v 1 h 2 v 1 h 3 v 1 h 2 v 1 h 3 v 1 h 2 v 1 h 2 v 1 h 3 v 1 h 2 v 1 h 3 v 1 h 2 v 1 h 3 v 1 h 2 v 1 h 3 v 1 h 2 v 1 h 3 v 1 h 3 v 1 h 3 v 1 h 2 v 1 h 3 v 1 h 3 v 1 h 3 v 1 h 3 v 1 h 3 v 1 h 2 v -2 h -1 v -1 h -1 v -1 h -1 v -2 h -1 v -1 h -1 v -1 h -1 v -1 h -1 v -2 h -1 v -1 h -1 v -1 h -1 v -1 h -1 v -2 h -1 v -1 h -1 v -1 h -1 v -2 h -1 v -1 h -1 v -1 h -1 v -1 h -1 v -2 h -1 v -1 h -1 v -1 h -1 v -2 h -1 v -1 h -1 v -1 h -1 v -2 h -1 v -1 h -1 v -1 h -1 v -2 h -1 v -1 h -1 v -2 h -1 v -1 h -1 v -1 h -1 v -2 h -1 v -1 h -1 v -2 h -1 v -1 h -1 v -2 h -1 v -1 h -1 v -1 h -1 v -2 h -1 v -1 h -1 v -2 h -1 v -1 h -1 v -2 h -1 v -2 h -1 v -1 h -1 v -2 h -1 v -1 h -1 v -2 h -1 v -1 h -1 v -2 h -1 v -1 h -1 v -2 h -1 v -2 h -1 v -1 h -1 v -2 h -1 v -2 h -1 v -1 h -1 v -2 h -1 v -2 h -1 v -1 h -1 v -2 h -1 v -2 h -1 v -2 h -1 v -1 h -1 v -2 h -1 v -2 h -1 v -2 h -1 v -1 h -1 v -2 h -1 v -2 h -1 v -2 h -1 v -2 h -1 v -2 h -1 v -2 h -1 v -2 h -1 v -2 h -1 v -2 h -1 v -2 h -1 v -2 h -1 v -2 h -1 v -2 h -1 v -2 h -1 v -2 h -1 v -2 h -1 v -3 h -1 v -2 h -1 v -2 h -1 v -2 h -1 v -2 h -1 v -3 h -1 v -2 h -1 v -3 h -1 v -2 h -1 v -3 h -1 v -2 h -1 v -3 h -1 v -2 h -1 v -3 h -1 v -3 h -1 v -3 h -1 v -3 h -1 v -3 h -1 v -2 h -1 v -4 h -1 v -3 h -1 v -3 h -1 v -4 h -1 v -3 h -1 v -3 h -1 v -4 h -1 v -4 h -1 v -5 h -1 v -4 h -1 v -4 h -1 v -5 h -1 v -6 h -1 v -5 h -1 v -6 h -1 v -7 h -1 v -9 h -1 v -11 h -1 v -45 h 1 v -11 h 1 v -9 h 1 v -6 h 1 v -6 h 1 v -6 h 1 v -5 h 1 v -4 h 1 v -4 h 1 v -4 h 1 v -4 h 1 v -4 h 1 v -4 h 1 v -3 h 1 v -3 h 1 v -3 h 1 v -3 h 1 v -3 h 1 v -3 h 1 v -3 h 1 v -3 h 1 v -2 h 1 v -2 h 1 v -3 h 1 v -2 h 1 v -2 h 1 v -3 h 1 v -2 h 1 v -2 h 1 v -3 h 1 v -2 h 1 v -2 h 1 v -2 h 1 v -2 h 1 v -2 h 1 v -2 h 1 v -2 h 1 v -2 h 1 v -2 h 1 v -2 h 1 v -1 h 1 v -2 h 1 v -2 h 1 v -2 h 1 v -2 h 1 v -2 h 1 v -1 h 1 v -2 h 1 v -1 h 1 v -2 h 1 v -2 h 1 v -1 h 1 v -2 h 1 v -1 h 1 v -2 h 1 v -2 h 1 v -1 h 1 v -2 h 1 v -2 h 1 v -1 h 1 v -1 h 1 v -2 h 1 v -1 h 1 v -1 h 1 v -2 h 1 v -1 h 1 v -2 h 1 v -1 h 1 v -1 h 1 v -2 h 1 v -1 h 1 v -2 h 1 v -1 h 1 v -1 h 1 v -2 h 1 v -1 h 1 v -1 h 1 v -2 h 1 v -1 h 1 v -1 h 1 v -1 h 1 v -1 h 1 v -2 h 1 v -1 h 1 v -1 h 1 v -1 h 1 v -1 h 1 v -2 h 1 v -1 h 1 v -1 h 1 v -1 h 1 v -1 h 1 v -2 h 1 v -1 h 1 v -1 h 1 v -1 h 1 v -1 h 1 v -1 h 1 v -2 h 1 v -1 h 1 v -1 h 1 v -1 h 1 v -1 h 1 v -1 h 1 v -1 h 1 v -1 h 1 v -1 h 1 v -1 h 1 v -1 h 1 v -1 h 1 v -1 h 1 v -1 h 1 v -1 h 1 v -1 h 1 v -1 h 1 v -1 h 1 v -1 h 1 v -2 h 1 v -1 h 1 v -1 h 1 v -1 h 1 v -1 h 2 v -1 h 1 v -1 h 1 v -1 h 1 v -1 h 1 v -1 h 1 v -1 h 1 v -1 h 1 v -1 h 1 v -1 h 1 v -1 h 1 v -1 h 1 v -1 h 1 v -1 h 1 v -1 h 2 v -1 h 1 v -1 h 1 v -1 h 1 v -1 h 1 v -1 h 1 v -1 h 1 v -1 h 1 v -1 h 1 v -1 h 1 v -1 h 2 v -1 h 1 v -1 h 1 v -1 h 1 v -1 h 1 v -1 h 2 v -1 h 1 v -1 h 1 v -1 h 1 v -1 h 1 v -1 h 2 v -1 h 1 v -1 h 1 v -1 h 1 v -1 h 1 v -1 h 2 v -1 h 1 v -1 h 1 v -1 h 1 v -1 h 1 v -1 h 2 v -1 h 1 v -1 h 1 v -1 h 1 v -1 h 2 v -1 h 1 v -1 h 1 v -1 h 2 v -1 h 1 v -1 h 1 v -1 h 2 v -1 h 1 v -1 h 1 v -1 h 2 v -1 h 1 v -1 h 2 v -1 h 1 v -1 h 1 v -1 h 2 v -1 h 1 v -1 h 1 v -1 h 2 v -1 h 1 v -1 h 1 v -1 h 2 v -1 h 1 v -1 h 1 v -1 h 2 v -1 h 1 v -1 h 2 v -1 h 1 v -1 h 2 v -1 h 1 v -1 h 2 v -1 h 1 v -1 h 2 v -1 h 1 v -1 h 2 v -1 h 1 v -1 h 2 v -1 h 1 v -1 h 2 v -1 h 1 v -1 h 2 v -1 h 1 v -1 h 2 v -1 h 1 v -1 h 2 v -1 h 1 v -1 h 2 v -1 h 1 v -1 h 2 v -1 h 1 v -1 h 2 v -1 h 2 v -1 h 1 v -1 h 2 v -1 h 2 v -1 h 1 v -1 h 2 v -1 h 1 v -1 h 2 v -1 h 2 v -1 h 1 v -1 h 2 v -1 h 2 v -1 h 1 v -1 h 2 v -1 h 1 v -1 h 2 v -1 h 2 v -1 h 2 v -1 h 1 v -1 h 2 v -1 h 1 v -1" /></g></g></g><path
         id="path64"
         style="fill:#464648;fill-opacity:1;fill-rule:nonzero;stroke:none"
         d="M 670.672,741.184 C 324.188,759.414 33.8555,613.543 23.4648,416.008 13.0742,218.465 286.492,42.9336 632.977,24.6992 979.449,6.47266 1269.79,152.344 1280.18,349.883 c 10.4,197.535 -263.04,373.07 -609.508,391.301 z M 631.754,1.55469 C 272.508,20.4492 -10.7539,206.922 0.3125,417.223 11.375,627.52 312.645,783.238 671.887,764.336 1031.13,745.434 1314.4,558.961 1303.33,348.664 1292.27,138.371 990.996,-17.3516 631.754,1.55469" /><path
         id="path66"
         style="fill:#464648;fill-opacity:1;fill-rule:nonzero;stroke:none"
         d="M 671.059,748.473 C 320.555,766.91 26.7734,617.941 16.168,416.383 5.5625,214.824 282.098,35.8555 632.59,17.4063 983.09,-1.02344 1276.87,147.945 1287.48,349.504 1298.08,551.055 1021.55,730.031 671.059,748.473 Z M 632.141,8.84766 C 276.918,27.5352 -3.25391,210.559 7.60156,416.836 18.4531,623.109 316.277,775.727 671.5,757.047 1026.73,738.352 1306.89,555.328 1296.05,349.051 1285.19,142.77 987.359,-9.84766 632.141,8.84766" /><g
         id="g68"><g
           clip-path="url(#clipPath74)"
           id="g70"><path
             id="path86"
             style="fill:url(#linearGradient84);fill-opacity:1;fill-rule:nonzero;stroke:none"
             d="M 1158.67,424.664 C 1151.54,289.316 920.441,191.449 642.492,206.074 364.531,220.699 144.977,342.277 152.098,477.617 159.215,612.957 390.32,710.816 668.277,696.191 946.227,681.566 1165.79,559.996 1158.67,424.664" /></g></g><path
         id="path88"
         style="fill:#464648;fill-opacity:1;fill-rule:nonzero;stroke:none"
         d="m 613.52,687.637 c -246.93,0 -445.227,-92.481 -451.438,-210.547 -6.816,-129.617 208.93,-246.719 480.938,-261.031 18.078,-0.95 36.324,-1.43 54.226,-1.43 246.93,0 445.224,92.492 451.434,210.562 6.82,129.614 -208.922,246.704 -480.93,261.016 -18.074,0.953 -36.32,1.43 -54.23,1.43 z m 83.726,-493.008 c -18.254,0 -36.851,0.488 -55.281,1.461 -283.02,14.887 -507.25,141.422 -499.856,282.055 6.883,130.832 209.543,229.492 471.411,229.492 18.253,0 36.859,-0.489 55.285,-1.457 C 951.816,691.289 1176.05,564.766 1168.65,424.137 1161.77,293.297 959.109,194.629 697.246,194.629" /><path
         id="path90"
         style="fill:#ffffff;fill-opacity:1;fill-rule:nonzero;stroke:none"
         d="M 585.898,452.078 C 580.172,343.219 498,259.063 402.355,264.098 c -95.632,5.039 -168.531,97.343 -162.8,206.203 5.726,108.84 87.902,193.008 183.539,187.976 95.636,-5.035 168.535,-97.355 162.804,-206.199" /><path
         id="path92"
         style="fill:#464648;fill-opacity:1;fill-rule:nonzero;stroke:none"
         d="m 414.953,648.492 c -87.48,0 -160.14,-78.5 -165.414,-178.722 -5.426,-103.157 63.363,-190.946 153.344,-195.688 90.668,-4.598 167.601,75.402 173.031,178.523 5.43,103.161 -63.363,190.95 -153.348,195.688 -2.55,0.133 -5.086,0.199 -7.613,0.199 z m -4.449,-394.609 c -2.887,0 -5.766,0.074 -8.676,0.23 -100.992,5.321 -178.265,102.539 -172.262,216.715 6.008,114.086 92.043,202.645 194.055,197.434 C 524.617,662.945 601.895,565.73 595.887,451.551 590.055,340.711 508.625,253.883 410.504,253.883" /><path
         id="path94"
         style="fill:#ffffff;fill-opacity:1;fill-rule:nonzero;stroke:none"
         d="m 1059.96,427.047 c -5.73,-108.844 -87.901,-193.008 -183.542,-187.981 -95.637,5.036 -168.523,97.36 -162.793,206.204 5.727,108.847 87.895,193.015 183.535,187.988 95.637,-5.035 168.53,-97.36 162.8,-206.211" /><path
         id="path96"
         style="fill:#464648;fill-opacity:1;fill-rule:nonzero;stroke:none"
         d="m 889.02,623.473 c -87.481,0 -160.137,-78.504 -165.411,-178.731 -2.64,-50.211 12.008,-98.265 41.246,-135.304 28.942,-36.657 68.75,-58.102 112.09,-60.383 90.688,-4.594 167.605,75.406 173.035,178.519 5.43,103.168 -63.363,190.961 -153.347,195.699 -2.547,0.129 -5.082,0.2 -7.613,0.2 z m -4.461,-394.618 c -2.875,0 -5.762,0.079 -8.668,0.227 -49.164,2.59 -94.176,26.727 -126.731,67.961 -32.254,40.859 -48.422,93.687 -45.519,148.754 6,114.094 92.086,202.641 194.047,197.445 C 998.68,637.926 1075.96,540.703 1069.95,426.52 1064.12,315.68 982.684,228.855 884.559,228.855" /><path
         id="path98"
         style="fill:#100f0d;fill-opacity:1;fill-rule:nonzero;stroke:none"
         d="M 518.105,477.043 C 514.836,414.883 461.789,367.145 399.633,370.41 337.473,373.684 289.723,426.723 293,488.887 c 3.266,62.172 56.313,109.902 118.473,106.636 62.164,-3.269 109.902,-56.308 106.632,-118.48" /><path
         id="path100"
         style="fill:#ffffff;fill-opacity:1;fill-rule:nonzero;stroke:none"
         d="m 477.824,508.188 c -1.312,-24.86 -22.535,-43.965 -47.39,-42.657 -24.871,1.313 -43.957,22.535 -42.653,47.395 1.309,24.859 22.524,43.965 47.387,42.652 24.863,-1.308 43.961,-22.531 42.656,-47.39" /><path
         id="path102"
         style="fill:#100f0d;fill-opacity:1;fill-rule:nonzero;stroke:none"
         d="M 1000.64,454.891 C 997.363,392.727 944.328,344.98 882.172,348.262 820.008,351.527 772.27,404.57 775.527,466.734 c 3.278,62.164 56.325,109.899 118.481,106.621 62.168,-3.265 109.902,-56.296 106.632,-118.464" /><path
         id="path104"
         style="fill:#ffffff;fill-opacity:1;fill-rule:nonzero;stroke:none"
         d="m 960.352,486.031 c -1.305,-24.863 -22.524,-43.961 -47.379,-42.652 -24.868,1.305 -43.973,22.523 -42.66,47.387 1.304,24.867 22.531,43.961 47.394,42.66 24.859,-1.313 43.953,-22.531 42.645,-47.395" /><path
         id="path106"
         style="fill:#464648;fill-opacity:1;fill-rule:nonzero;stroke:none"
         d="m 740.516,127.824 c 17.523,2.914 33.988,5.75 50.175,9.071 16.149,3.293 31.836,7.168 47.168,11.964 15.321,4.813 30.258,10.508 44.989,17.383 14.824,6.817 29.183,14.965 44.738,23.758 -7.711,-16.141 -19.863,-29.902 -34.094,-40.98 -14.285,-11.055 -30.734,-19.399 -47.965,-24.727 -17.254,-5.371 -35.261,-7.848 -53.093,-7.5 -17.774,0.512 -35.661,3.355 -51.918,11.031" /><path
         id="path108"
         style="fill:#464648;fill-opacity:1;fill-rule:nonzero;stroke:none"
         d="m 814.879,98.707 c 6.992,1.1563 13.57,2.297 20.019,3.633 6.454,1.301 12.711,2.851 18.829,4.769 6.121,1.914 12.082,4.188 17.961,6.946 5.921,2.711 11.648,5.965 17.867,9.48 -3.094,-6.461 -7.938,-11.945 -13.625,-16.355 -5.688,-4.418 -12.254,-7.7503 -19.145,-9.8831 -6.875,-2.1446 -14.074,-3.1211 -21.191,-2.9922 -7.098,0.2109 -14.227,1.3398 -20.715,4.4023" /><path
         id="path110"
         style="fill:#52aee5;fill-opacity:1;fill-rule:nonzero;stroke:none"
         d="m 337.031,869.969 c -1.101,-21.051 -19.07,-37.215 -40.125,-36.106 -21.051,1.11 -37.218,19.067 -36.109,40.121 1.105,21.067 19.074,37.227 40.117,36.121 21.055,-1.109 37.227,-19.07 36.117,-40.136" /><path
         id="path112"
         style="fill:#464648;fill-opacity:1;fill-rule:nonzero;stroke:none"
         d="m 298.875,900.156 c -14.969,0 -27.305,-11.722 -28.094,-26.691 -0.812,-15.516 11.141,-28.801 26.653,-29.617 l 1.511,-0.039 c 14.973,0 27.317,11.718 28.102,26.679 0.816,15.524 -11.141,28.817 -26.66,29.629 z m 0.07,-76.347 -2.566,0.07 c -26.524,1.394 -46.961,24.109 -45.566,50.633 1.382,26.457 24.027,46.953 50.628,45.578 26.532,-1.399 46.973,-24.117 45.579,-50.649 -1.344,-25.586 -22.457,-45.632 -48.075,-45.632" /></g></g></svg>